%TF.GenerationSoftware,KiCad,Pcbnew,8.0.0*%
%TF.CreationDate,2025-02-14T14:26:33-04:00*%
%TF.ProjectId,Proyecto 1 Kicad,50726f79-6563-4746-9f20-31204b696361,rev?*%
%TF.SameCoordinates,Original*%
%TF.FileFunction,Soldermask,Top*%
%TF.FilePolarity,Negative*%
%FSLAX46Y46*%
G04 Gerber Fmt 4.6, Leading zero omitted, Abs format (unit mm)*
G04 Created by KiCad (PCBNEW 8.0.0) date 2025-02-14 14:26:33*
%MOMM*%
%LPD*%
G01*
G04 APERTURE LIST*
G04 Aperture macros list*
%AMRoundRect*
0 Rectangle with rounded corners*
0 $1 Rounding radius*
0 $2 $3 $4 $5 $6 $7 $8 $9 X,Y pos of 4 corners*
0 Add a 4 corners polygon primitive as box body*
4,1,4,$2,$3,$4,$5,$6,$7,$8,$9,$2,$3,0*
0 Add four circle primitives for the rounded corners*
1,1,$1+$1,$2,$3*
1,1,$1+$1,$4,$5*
1,1,$1+$1,$6,$7*
1,1,$1+$1,$8,$9*
0 Add four rect primitives between the rounded corners*
20,1,$1+$1,$2,$3,$4,$5,0*
20,1,$1+$1,$4,$5,$6,$7,0*
20,1,$1+$1,$6,$7,$8,$9,0*
20,1,$1+$1,$8,$9,$2,$3,0*%
G04 Aperture macros list end*
%ADD10R,1.800000X1.000000*%
%ADD11RoundRect,0.062500X0.062500X-0.350000X0.062500X0.350000X-0.062500X0.350000X-0.062500X-0.350000X0*%
%ADD12RoundRect,0.062500X0.350000X-0.062500X0.350000X0.062500X-0.350000X0.062500X-0.350000X-0.062500X0*%
%ADD13R,2.500000X2.500000*%
%ADD14RoundRect,0.075000X0.075000X-0.125000X0.075000X0.125000X-0.075000X0.125000X-0.075000X-0.125000X0*%
%ADD15RoundRect,0.075000X0.125000X0.075000X-0.125000X0.075000X-0.125000X-0.075000X0.125000X-0.075000X0*%
%ADD16RoundRect,0.147500X-0.147500X-0.172500X0.147500X-0.172500X0.147500X0.172500X-0.147500X0.172500X0*%
%ADD17RoundRect,0.147500X0.147500X0.172500X-0.147500X0.172500X-0.147500X-0.172500X0.147500X-0.172500X0*%
%ADD18RoundRect,0.147500X-0.172500X0.147500X-0.172500X-0.147500X0.172500X-0.147500X0.172500X0.147500X0*%
%ADD19RoundRect,0.225000X0.225000X0.475000X-0.225000X0.475000X-0.225000X-0.475000X0.225000X-0.475000X0*%
%ADD20O,0.900000X1.400000*%
%ADD21RoundRect,0.075000X-0.125000X-0.075000X0.125000X-0.075000X0.125000X0.075000X-0.125000X0.075000X0*%
%ADD22RoundRect,0.075000X-0.075000X0.125000X-0.075000X-0.125000X0.075000X-0.125000X0.075000X0.125000X0*%
G04 APERTURE END LIST*
D10*
%TO.C,y1*%
X157226000Y-102088000D03*
X157226000Y-99588000D03*
%TD*%
D11*
%TO.C,U1*%
X152025000Y-104182500D03*
X152525000Y-104182500D03*
X153025000Y-104182500D03*
X153525000Y-104182500D03*
X154025000Y-104182500D03*
D12*
X154962500Y-103245000D03*
X154962500Y-102745000D03*
X154962500Y-102245000D03*
X154962500Y-101745000D03*
X154962500Y-101245000D03*
D11*
X154025000Y-100307500D03*
X153525000Y-100307500D03*
X153025000Y-100307500D03*
X152525000Y-100307500D03*
X152025000Y-100307500D03*
D12*
X151087500Y-101245000D03*
X151087500Y-101745000D03*
X151087500Y-102245000D03*
X151087500Y-102745000D03*
X151087500Y-103245000D03*
D13*
X153025000Y-102245000D03*
%TD*%
D14*
%TO.C,R2*%
X159258000Y-102108000D03*
X159258000Y-101608000D03*
%TD*%
D15*
%TO.C,R1*%
X149581000Y-101092000D03*
X149081000Y-101092000D03*
%TD*%
D16*
%TO.C,L4*%
X149906000Y-96012000D03*
X150876000Y-96012000D03*
%TD*%
D17*
%TO.C,L3*%
X152494000Y-97907000D03*
X151524000Y-97907000D03*
%TD*%
%TO.C,L2*%
X152885000Y-96637000D03*
X151915000Y-96637000D03*
%TD*%
D18*
%TO.C,L1*%
X154178000Y-96937000D03*
X154178000Y-97907000D03*
%TD*%
D19*
%TO.C,J1*%
X157537000Y-106934000D03*
D20*
X156287000Y-106934000D03*
X155037000Y-106934000D03*
X153787000Y-106934000D03*
X152537000Y-106934000D03*
X151287000Y-106934000D03*
X150037000Y-106934000D03*
X148787000Y-106934000D03*
%TD*%
D21*
%TO.C,C11*%
X152150000Y-95504000D03*
X152650000Y-95504000D03*
%TD*%
D15*
%TO.C,C10*%
X148819000Y-96012000D03*
X148319000Y-96012000D03*
%TD*%
%TO.C,C9*%
X150002000Y-97653000D03*
X150502000Y-97653000D03*
%TD*%
D22*
%TO.C,C8*%
X148844000Y-96778000D03*
X148844000Y-97278000D03*
%TD*%
D15*
%TO.C,C7*%
X150481000Y-96891000D03*
X149981000Y-96891000D03*
%TD*%
%TO.C,C6*%
X150618000Y-98669000D03*
X150118000Y-98669000D03*
%TD*%
D21*
%TO.C,c5*%
X159012000Y-100584000D03*
X159512000Y-100584000D03*
%TD*%
%TO.C,c4*%
X159012000Y-103378000D03*
X159512000Y-103378000D03*
%TD*%
D15*
%TO.C,C3*%
X149602000Y-102362000D03*
X149102000Y-102362000D03*
%TD*%
%TO.C,C2*%
X149606000Y-103632000D03*
X149106000Y-103632000D03*
%TD*%
D21*
%TO.C,C1*%
X156468000Y-104394000D03*
X156968000Y-104394000D03*
%TD*%
M02*
